<svg xmlns="http://www.w3.org/2000/svg" xmlns:xlink="http://www.w3.org/1999/xlink" width="500" zoomAndPan="magnify" viewBox="0 0 375 374.999991" height="500" preserveAspectRatio="xMidYMid meet" version="1.0"><defs><g/><clipPath id="825b6bdd6e"><path d="M 173 125.425781 L 204 125.425781 L 204 202 L 173 202 Z M 173 125.425781 " clip-rule="nonzero"/></clipPath><clipPath id="ce6d5c8cde"><path d="M 186.207031 185.207031 L 262.691406 185.207031 L 262.691406 215.425781 L 186.207031 215.425781 Z M 186.207031 185.207031 " clip-rule="nonzero"/></clipPath><clipPath id="87565297e0"><path d="M 112.691406 185.207031 L 189.195312 185.207031 L 189.195312 215.425781 L 112.691406 215.425781 Z M 112.691406 185.207031 " clip-rule="nonzero"/></clipPath><clipPath id="e665a99522"><path d="M 101.558594 169.050781 L 124 169.050781 L 124 191.550781 L 101.558594 191.550781 Z M 101.558594 169.050781 " clip-rule="nonzero"/></clipPath><clipPath id="a6bd2eaef7"><path d="M 253.886719 169.050781 L 276.386719 169.050781 L 276.386719 191.550781 L 253.886719 191.550781 Z M 253.886719 169.050781 " clip-rule="nonzero"/></clipPath><clipPath id="1ec8b91774"><path d="M 136.304688 114.292969 L 158.804688 114.292969 L 158.804688 136.792969 L 136.304688 136.792969 Z M 136.304688 114.292969 " clip-rule="nonzero"/></clipPath><clipPath id="1713c58936"><path d="M 219.140625 114.292969 L 241.640625 114.292969 L 241.640625 136.792969 L 219.140625 136.792969 Z M 219.140625 114.292969 " clip-rule="nonzero"/></clipPath></defs><rect x="-37.5" width="450" fill="#ffffff" y="-37.499999" height="449.999989" fill-opacity="1"/><rect x="-37.5" width="450" fill="#fff8a5" y="-37.499999" height="449.999989" fill-opacity="1"/><path fill="#8a1131" d="M 212.203125 133.296875 C 194.519531 146.191406 184.789062 161.683594 184.039062 178.175781 C 183.558594 188.757812 186.917969 196.753906 188.097656 199.210938 C 190.585938 198.09375 198.308594 194.152344 204.769531 185.753906 C 214.835938 172.667969 217.394531 154.554688 212.203125 133.296875 Z M 187.183594 201.71875 L 186.765625 200.980469 C 186.546875 200.597656 181.472656 191.480469 182.046875 178.191406 C 182.382812 170.394531 184.613281 162.792969 188.679688 155.597656 C 193.738281 146.644531 201.664062 138.308594 212.234375 130.820312 L 213.414062 129.984375 L 213.773438 131.382812 C 217.019531 143.921875 217.695312 155.40625 215.789062 165.507812 C 214.253906 173.628906 211.054688 180.878906 206.28125 187.054688 C 198.148438 197.578125 188.386719 201.273438 187.976562 201.421875 L 187.183594 201.71875 " fill-opacity="1" fill-rule="nonzero"/><g clip-path="url(#825b6bdd6e)"><path fill="#8a1131" d="M 189.210938 128.960938 C 176.609375 146.910156 172.40625 164.746094 177.0625 180.625 C 180.039062 190.765625 185.757812 197.195312 187.660156 199.128906 C 189.652344 197.273438 195.691406 191.046875 199.101562 181.011719 C 204.40625 165.378906 200.984375 147.410156 189.210938 128.960938 Z M 187.601562 201.796875 L 186.96875 201.234375 C 186.640625 200.941406 178.894531 193.949219 175.152344 181.183594 C 172.953125 173.695312 172.617188 165.78125 174.144531 157.65625 C 176.042969 147.554688 180.855469 137.105469 188.441406 126.605469 L 189.289062 125.4375 L 190.082031 126.644531 C 197.199219 137.46875 201.546875 148.117188 202.996094 158.292969 C 204.164062 166.476562 203.476562 174.371094 200.953125 181.753906 C 196.648438 194.339844 188.597656 200.984375 188.257812 201.261719 L 187.601562 201.796875 " fill-opacity="1" fill-rule="nonzero"/></g><path fill="#8a1131" d="M 188.824219 199.835938 C 191.425781 200.636719 199.835938 202.765625 210.230469 200.707031 C 226.425781 197.503906 240.292969 185.570312 250.402344 166.160156 C 228.558594 164.195312 211.007812 169.457031 199.570312 181.417969 C 192.265625 189.054688 189.550781 197.222656 188.824219 199.835938 Z M 201.195312 203.585938 C 193.050781 203.585938 187.578125 201.535156 187.273438 201.417969 L 186.484375 201.117188 L 186.65625 200.285156 C 186.746094 199.859375 188.9375 189.65625 198.132812 180.039062 C 203.523438 174.398438 210.214844 170.15625 218.015625 167.425781 C 227.722656 164.027344 239.175781 162.984375 252.058594 164.320312 L 253.496094 164.46875 L 252.847656 165.761719 C 247.019531 177.332031 239.960938 186.410156 231.863281 192.746094 C 225.355469 197.84375 218.171875 201.1875 210.511719 202.683594 C 207.15625 203.339844 204.015625 203.585938 201.195312 203.585938 " fill-opacity="1" fill-rule="nonzero"/><path fill="#8a1131" d="M 188.59375 199.527344 C 191.316406 199.5625 199.984375 199.242188 209.382812 194.34375 C 224.023438 186.71875 233.976562 171.367188 238.222656 149.898438 C 216.707031 154.15625 201.339844 164.136719 193.726562 178.828125 C 188.867188 188.214844 188.554688 196.816406 188.59375 199.527344 Z M 189.105469 201.53125 C 188.191406 201.53125 187.644531 201.488281 187.550781 201.480469 L 186.707031 201.414062 L 186.636719 200.570312 C 186.601562 200.132812 185.839844 189.722656 191.960938 177.914062 C 195.550781 170.984375 200.777344 165.03125 207.496094 160.214844 C 215.855469 154.230469 226.550781 150.007812 239.292969 147.667969 L 240.714844 147.40625 L 240.453125 148.828125 C 238.113281 161.566406 233.890625 172.265625 227.902344 180.625 C 223.089844 187.34375 217.136719 192.570312 210.207031 196.160156 C 200.914062 200.976562 192.484375 201.53125 189.105469 201.53125 " fill-opacity="1" fill-rule="nonzero"/><g clip-path="url(#ce6d5c8cde)"><path fill="#8a1131" d="M 188.992188 200.488281 C 190.894531 202.441406 197.25 208.339844 207.355469 211.523438 C 223.101562 216.484375 240.992188 212.667969 259.175781 200.488281 C 240.992188 188.3125 223.101562 184.496094 207.355469 189.453125 C 197.25 192.636719 190.894531 198.535156 188.992188 200.488281 Z M 221.394531 215.652344 C 216.328125 215.652344 211.398438 214.898438 206.65625 213.394531 C 193.976562 209.367188 187.15625 201.46875 186.871094 201.132812 L 186.324219 200.488281 L 186.871094 199.84375 C 187.15625 199.507812 193.976562 191.609375 206.65625 187.585938 C 214.09375 185.222656 222 184.710938 230.15625 186.058594 C 240.296875 187.734375 250.847656 192.3125 261.511719 199.667969 L 262.703125 200.488281 L 261.511719 201.308594 C 250.847656 208.664062 240.296875 213.242188 230.15625 214.921875 C 227.199219 215.410156 224.273438 215.652344 221.394531 215.652344 " fill-opacity="1" fill-rule="nonzero"/></g><path fill="#8a1131" d="M 163.191406 133.296875 C 158 154.554688 160.558594 172.667969 170.625 185.753906 C 177.085938 194.152344 184.808594 198.09375 187.296875 199.210938 C 188.476562 196.753906 191.835938 188.757812 191.355469 178.175781 C 190.605469 161.683594 180.875 146.191406 163.191406 133.296875 Z M 188.210938 201.71875 L 187.417969 201.421875 C 187.007812 201.273438 177.246094 197.578125 169.113281 187.054688 C 164.339844 180.878906 161.140625 173.628906 159.605469 165.507812 C 157.699219 155.40625 158.375 143.921875 161.621094 131.382812 L 161.980469 129.984375 L 163.160156 130.820312 C 173.730469 138.308594 181.65625 146.644531 186.714844 155.597656 C 190.78125 162.792969 193.011719 170.394531 193.347656 178.191406 C 193.921875 191.480469 188.847656 200.597656 188.628906 200.980469 L 188.210938 201.71875 " fill-opacity="1" fill-rule="nonzero"/><path fill="#8a1131" d="M 124.992188 166.160156 C 135.125 185.613281 149.023438 197.554688 165.261719 200.726562 C 175.636719 202.753906 183.976562 200.636719 186.570312 199.835938 C 185.839844 197.214844 183.09375 188.984375 175.75 181.34375 C 164.316406 169.4375 146.789062 164.199219 124.992188 166.160156 Z M 174.199219 203.585938 C 171.378906 203.585938 168.238281 203.339844 164.882812 202.683594 C 157.222656 201.1875 150.039062 197.84375 143.53125 192.746094 C 135.433594 186.410156 128.375 177.332031 122.546875 165.761719 L 121.898438 164.46875 L 123.335938 164.320312 C 136.21875 162.984375 147.675781 164.03125 157.378906 167.425781 C 165.179688 170.15625 171.871094 174.398438 177.261719 180.039062 C 186.457031 189.65625 188.648438 199.859375 188.738281 200.285156 L 188.910156 201.117188 L 188.121094 201.417969 C 187.816406 201.535156 182.34375 203.585938 174.199219 203.585938 " fill-opacity="1" fill-rule="nonzero"/><path fill="#8a1131" d="M 137.175781 149.898438 C 141.429688 171.414062 151.414062 186.78125 166.105469 194.390625 C 175.488281 199.253906 184.089844 199.566406 186.800781 199.527344 C 186.835938 196.804688 186.515625 188.136719 181.617188 178.738281 C 173.992188 164.097656 158.644531 154.144531 137.175781 149.898438 Z M 186.289062 201.53125 C 182.910156 201.53125 174.484375 200.976562 165.1875 196.160156 C 158.257812 192.570312 152.304688 187.34375 147.492188 180.625 C 141.503906 172.265625 137.28125 161.566406 134.941406 148.828125 L 134.679688 147.40625 L 136.101562 147.667969 C 148.84375 150.007812 159.539062 154.230469 167.898438 160.214844 C 174.617188 165.03125 179.84375 170.984375 183.433594 177.914062 C 189.554688 189.722656 188.792969 200.132812 188.757812 200.570312 L 188.6875 201.414062 L 187.84375 201.480469 C 187.75 201.488281 187.203125 201.53125 186.289062 201.53125 " fill-opacity="1" fill-rule="nonzero"/><g clip-path="url(#87565297e0)"><path fill="#8a1131" d="M 116.21875 200.488281 C 134.402344 212.667969 152.292969 216.484375 168.039062 211.523438 C 178.144531 208.34375 184.5 202.441406 186.402344 200.488281 C 184.5 198.535156 178.144531 192.636719 168.039062 189.453125 C 152.292969 184.496094 134.402344 188.308594 116.21875 200.488281 Z M 154 215.652344 C 151.117188 215.652344 148.195312 215.410156 145.238281 214.921875 C 135.097656 213.242188 124.546875 208.664062 113.882812 201.308594 L 112.691406 200.488281 L 113.882812 199.667969 C 124.546875 192.3125 135.097656 187.734375 145.238281 186.058594 C 153.394531 184.710938 161.300781 185.222656 168.738281 187.585938 C 181.417969 191.609375 188.238281 199.507812 188.523438 199.84375 L 189.070312 200.488281 L 188.523438 201.132812 C 188.238281 201.46875 181.417969 209.367188 168.738281 213.394531 C 163.996094 214.898438 159.066406 215.652344 154 215.652344 " fill-opacity="1" fill-rule="nonzero"/></g><g clip-path="url(#e665a99522)"><path fill="#8a1131" d="M 123.820312 180.179688 C 115.472656 181.71875 114.226562 182.964844 112.691406 191.3125 C 111.152344 182.964844 109.90625 181.71875 101.558594 180.179688 C 109.90625 178.644531 111.152344 177.398438 112.691406 169.050781 C 114.226562 177.398438 115.472656 178.644531 123.820312 180.179688 Z M 123.820312 180.179688 " fill-opacity="1" fill-rule="nonzero"/></g><g clip-path="url(#a6bd2eaef7)"><path fill="#8a1131" d="M 276.152344 180.179688 C 267.804688 181.71875 266.558594 182.964844 265.019531 191.3125 C 263.484375 182.964844 262.238281 181.71875 253.886719 180.179688 C 262.238281 178.644531 263.484375 177.398438 265.019531 169.050781 C 266.558594 177.398438 267.804688 178.644531 276.152344 180.179688 Z M 276.152344 180.179688 " fill-opacity="1" fill-rule="nonzero"/></g><g clip-path="url(#1ec8b91774)"><path fill="#8a1131" d="M 158.570312 125.421875 C 150.21875 126.960938 148.972656 128.207031 147.4375 136.554688 C 145.898438 128.207031 144.652344 126.960938 136.304688 125.421875 C 144.652344 123.886719 145.898438 122.640625 147.4375 114.292969 C 148.972656 122.640625 150.21875 123.886719 158.570312 125.421875 Z M 158.570312 125.421875 " fill-opacity="1" fill-rule="nonzero"/></g><g clip-path="url(#1713c58936)"><path fill="#8a1131" d="M 241.40625 125.421875 C 233.058594 126.960938 231.8125 128.207031 230.273438 136.554688 C 228.738281 128.207031 227.492188 126.960938 219.140625 125.421875 C 227.492188 123.886719 228.738281 122.640625 230.273438 114.292969 C 231.8125 122.640625 233.058594 123.886719 241.40625 125.421875 Z M 241.40625 125.421875 " fill-opacity="1" fill-rule="nonzero"/></g><g fill="#8a1131" fill-opacity="1"><g transform="translate(140.445515, 243.001038)"><g><path d="M 12.5 -17.484375 C 12.5 -12.0625 4.765625 -11.390625 4.765625 -9.65625 C 4.765625 -8.5625 6.546875 -9 8.6875 -5.796875 C 11.734375 -1.21875 12.28125 0 13.171875 0 L 16.125 0 L 16.125 -0.1875 C 13.921875 -0.1875 12.109375 -3.609375 10.296875 -6.3125 C 8.4375 -9.09375 4.96875 -8.5625 4.96875 -9.65625 C 4.96875 -10.90625 14.3125 -11.546875 14.3125 -17.515625 C 14.3125 -18.234375 14.078125 -18.984375 13.734375 -19.3125 L 11.8125 -19.3125 C 12.25 -19 12.5 -18.1875 12.5 -17.484375 Z M 0.578125 0 L 5.78125 0 L 5.78125 -0.1875 C 4.109375 -0.1875 4 -1.5625 4 -5.375 L 4 -13.9375 C 4 -17.75 4.109375 -19.125 5.78125 -19.125 L 5.78125 -19.3125 L 0.578125 -19.3125 L 0.578125 -19.125 C 2.234375 -19.125 2.359375 -17.75 2.359375 -13.9375 L 2.359375 -5.375 C 2.359375 -1.5625 2.234375 -0.1875 0.578125 -0.1875 Z M 0.578125 0 "/></g></g></g><g fill="#8a1131" fill-opacity="1"><g transform="translate(159.662154, 243.001038)"><g><path d="M 0.578125 -19.125 C 2.234375 -19.125 2.359375 -17.75 2.359375 -13.9375 L 2.359375 -5.375 C 2.359375 -1.5625 2.234375 -0.1875 0.578125 -0.1875 L 0.578125 0 L 14.40625 0 L 14.40625 -3.1875 L 14.21875 -3.1875 C 14.21875 -0.40625 8.328125 -0.1875 6.484375 -0.1875 L 4.015625 -0.1875 L 4.015625 -10.5 C 4.328125 -10.90625 4.8125 -11.203125 5.375 -11.1875 C 6.734375 -11.140625 7.71875 -9.484375 10.078125 -9.484375 C 11.609375 -9.484375 12.546875 -10.46875 12.546875 -11.609375 L 12.359375 -11.609375 C 12.359375 -10.9375 11.671875 -10.5 10.9375 -10.5 C 9.234375 -10.5 8.171875 -11.703125 6.25 -11.703125 C 5.375 -11.703125 4.59375 -11.375 4.015625 -10.8125 L 4.015625 -19.125 L 7.21875 -19.125 C 11.671875 -19.125 14.21875 -18.078125 14.21875 -16.78125 L 14.21875 -16.703125 L 14.40625 -16.703125 L 14.40625 -19.3125 L 0.578125 -19.3125 Z M 0.578125 -19.125 "/></g></g></g><g fill="#8a1131" fill-opacity="1"><g transform="translate(177.546231, 243.001038)"><g><path d="M 0.578125 0 L 2.125 0 C 4.15625 0 5.8125 0.390625 7.515625 0.390625 C 13.453125 0.390625 16.28125 -4.359375 16.28125 -9.65625 C 16.28125 -14.953125 13.453125 -19.703125 7.515625 -19.703125 C 5.8125 -19.703125 4.15625 -19.3125 2.125 -19.3125 L 0.578125 -19.3125 L 0.578125 -19.125 C 2.234375 -19.125 2.359375 -17.75 2.359375 -13.9375 L 2.359375 -5.375 C 2.359375 -1.5625 2.234375 -0.1875 0.578125 -0.1875 Z M 4 -18.890625 C 5.125 -19.234375 6.234375 -19.421875 7.5 -19.421875 C 12.265625 -19.421875 14.625 -14.921875 14.625 -9.65625 C 14.625 -4.390625 12.265625 0.109375 7.5 0.109375 C 6.234375 0.109375 5.125 -0.078125 4 -0.421875 Z M 4 -18.890625 "/></g></g></g><g fill="#8a1131" fill-opacity="1"><g transform="translate(197.882996, 243.001038)"><g><path d="M 0.578125 -3.375 C 0.578125 -1.375 1.859375 0.390625 4.09375 0.390625 C 7.9375 0.390625 10.203125 -3.015625 10.203125 -7.703125 C 10.203125 -8.625 10.15625 -9.40625 10.078125 -10.015625 L 12.46875 -3.703125 C 13.203125 -1.75 13.3125 -0.1875 10.578125 -0.1875 L 10.578125 0 L 16.921875 0 L 16.921875 -0.1875 C 15.734375 -0.1875 15.125 -1.25 14.265625 -3.375 L 8.09375 -19.703125 L 7.90625 -19.703125 C 6.6875 -16.5 5.96875 -14.578125 4.796875 -11.46875 C 4.59375 -10.96875 4.6875 -10.453125 5.234375 -10.453125 C 6.328125 -10.453125 6.90625 -12.46875 7.84375 -12.46875 C 8.09375 -12.46875 8.296875 -12.328125 8.296875 -11.953125 C 8.296875 -9.953125 0.578125 -8.125 0.578125 -3.375 Z M 2.21875 -3.75 C 2.21875 -8.515625 8.515625 -9.328125 8.515625 -11.921875 C 8.515625 -12.421875 8.25 -12.671875 7.875 -12.671875 C 6.859375 -12.671875 6.140625 -10.640625 5.25 -10.640625 C 4.9375 -10.640625 4.796875 -10.875 5.046875 -11.546875 L 7.265625 -17.453125 L 9.59375 -11.296875 C 9.953125 -10.15625 10 -9.09375 10 -7.671875 C 10 -4.5 8.484375 -0.546875 5.25 -0.546875 C 3.359375 -0.546875 2.21875 -1.9375 2.21875 -3.75 Z M 2.21875 -3.75 "/></g></g></g><g fill="#8a1131" fill-opacity="1"><g transform="translate(217.698319, 243.001038)"><g><path d="M 0.578125 0 L 5.78125 0 L 5.78125 -0.1875 C 4.109375 -0.1875 4 -1.5625 4 -5.375 L 4 -18.8125 C 5.171875 -19.234375 6.109375 -19.421875 7.53125 -19.421875 C 11.125 -19.421875 13.390625 -17.453125 13.390625 -14.25 C 13.390625 -11.9375 11.8125 -9.5625 9.40625 -9.5625 C 7.609375 -9.5625 6.71875 -10.65625 5.578125 -10.65625 C 5.234375 -10.65625 4.90625 -10.46875 4.90625 -10 C 4.90625 -8.6875 6.953125 -8.609375 8.828125 -5.796875 C 11.875 -1.21875 12.421875 0 13.3125 0 L 16.265625 0 L 16.265625 -0.1875 C 14.0625 -0.1875 12.265625 -3.625 10.734375 -6 C 9.171875 -8.4375 5.09375 -8.703125 5.09375 -9.96875 C 5.09375 -10.40625 5.421875 -10.46875 5.65625 -10.46875 C 6.46875 -10.46875 7.703125 -9.234375 9.515625 -9.234375 C 12.875 -9.234375 15.046875 -11.625 15.046875 -14.265625 C 15.046875 -17.421875 12.75 -19.703125 8.625 -19.703125 C 6.390625 -19.703125 5.015625 -19.3125 2.890625 -19.3125 L 0.578125 -19.3125 L 0.578125 -19.125 C 2.234375 -19.125 2.359375 -17.75 2.359375 -13.9375 L 2.359375 -5.375 C 2.359375 -1.5625 2.234375 -0.1875 0.578125 -0.1875 Z M 0.578125 0 "/></g></g></g><g fill="#8a1131" fill-opacity="1"><g transform="translate(130.601195, 257.905735)"><g><path d="M 3.46875 0.0625 C 2.882812 0.0625 2.320312 -0.03125 1.78125 -0.21875 C 1.238281 -0.40625 0.820312 -0.65625 0.53125 -0.96875 L 0.859375 -1.609375 C 1.148438 -1.316406 1.53125 -1.082031 2 -0.90625 C 2.476562 -0.726562 2.96875 -0.640625 3.46875 -0.640625 C 4.175781 -0.640625 4.707031 -0.769531 5.0625 -1.03125 C 5.414062 -1.289062 5.59375 -1.628906 5.59375 -2.046875 C 5.59375 -2.359375 5.492188 -2.609375 5.296875 -2.796875 C 5.109375 -2.992188 4.875 -3.140625 4.59375 -3.234375 C 4.320312 -3.335938 3.9375 -3.453125 3.4375 -3.578125 C 2.84375 -3.722656 2.367188 -3.863281 2.015625 -4 C 1.660156 -4.144531 1.351562 -4.359375 1.09375 -4.640625 C 0.84375 -4.929688 0.71875 -5.320312 0.71875 -5.8125 C 0.71875 -6.21875 0.820312 -6.582031 1.03125 -6.90625 C 1.25 -7.226562 1.578125 -7.488281 2.015625 -7.6875 C 2.453125 -7.882812 2.992188 -7.984375 3.640625 -7.984375 C 4.097656 -7.984375 4.539062 -7.921875 4.96875 -7.796875 C 5.40625 -7.671875 5.78125 -7.5 6.09375 -7.28125 L 5.8125 -6.625 C 5.476562 -6.84375 5.125 -7.003906 4.75 -7.109375 C 4.375 -7.222656 4.003906 -7.28125 3.640625 -7.28125 C 2.953125 -7.28125 2.429688 -7.144531 2.078125 -6.875 C 1.722656 -6.601562 1.546875 -6.257812 1.546875 -5.84375 C 1.546875 -5.519531 1.640625 -5.257812 1.828125 -5.0625 C 2.023438 -4.875 2.269531 -4.726562 2.5625 -4.625 C 2.851562 -4.53125 3.242188 -4.421875 3.734375 -4.296875 C 4.316406 -4.148438 4.785156 -4.007812 5.140625 -3.875 C 5.492188 -3.738281 5.796875 -3.523438 6.046875 -3.234375 C 6.296875 -2.953125 6.421875 -2.570312 6.421875 -2.09375 C 6.421875 -1.695312 6.3125 -1.332031 6.09375 -1 C 5.882812 -0.675781 5.554688 -0.414062 5.109375 -0.21875 C 4.671875 -0.03125 4.125 0.0625 3.46875 0.0625 Z M 3.46875 0.0625 "/></g></g></g><g fill="#8a1131" fill-opacity="1"><g transform="translate(143.33931, 257.905735)"><g><path d="M 6.296875 -2.71875 L 1.328125 -2.71875 C 1.367188 -2.101562 1.601562 -1.601562 2.03125 -1.21875 C 2.46875 -0.84375 3.015625 -0.65625 3.671875 -0.65625 C 4.035156 -0.65625 4.367188 -0.71875 4.671875 -0.84375 C 4.984375 -0.976562 5.253906 -1.175781 5.484375 -1.4375 L 5.9375 -0.921875 C 5.675781 -0.597656 5.347656 -0.351562 4.953125 -0.1875 C 4.554688 -0.0195312 4.117188 0.0625 3.640625 0.0625 C 3.023438 0.0625 2.484375 -0.0664062 2.015625 -0.328125 C 1.546875 -0.585938 1.175781 -0.945312 0.90625 -1.40625 C 0.644531 -1.875 0.515625 -2.394531 0.515625 -2.96875 C 0.515625 -3.550781 0.640625 -4.070312 0.890625 -4.53125 C 1.148438 -4.988281 1.5 -5.347656 1.9375 -5.609375 C 2.382812 -5.867188 2.878906 -6 3.421875 -6 C 3.972656 -6 4.46875 -5.867188 4.90625 -5.609375 C 5.34375 -5.347656 5.6875 -4.988281 5.9375 -4.53125 C 6.1875 -4.082031 6.3125 -3.5625 6.3125 -2.96875 Z M 3.421875 -5.3125 C 2.847656 -5.3125 2.367188 -5.125 1.984375 -4.75 C 1.597656 -4.382812 1.378906 -3.910156 1.328125 -3.328125 L 5.546875 -3.328125 C 5.492188 -3.910156 5.269531 -4.382812 4.875 -4.75 C 4.488281 -5.125 4.003906 -5.3125 3.421875 -5.3125 Z M 3.421875 -5.3125 "/></g></g></g><g fill="#8a1131" fill-opacity="1"><g transform="translate(155.953027, 257.905735)"><g><path d="M 9.859375 -5.953125 L 7.609375 0 L 6.84375 0 L 4.96875 -4.875 L 3.09375 0 L 2.328125 0 L 0.09375 -5.953125 L 0.859375 -5.953125 L 2.71875 -0.890625 L 4.640625 -5.953125 L 5.328125 -5.953125 L 7.234375 -0.890625 L 9.125 -5.953125 Z M 9.859375 -5.953125 "/></g></g></g><g fill="#8a1131" fill-opacity="1"><g transform="translate(171.676596, 257.905735)"><g><path d="M 3.203125 -6 C 3.972656 -6 4.566406 -5.800781 4.984375 -5.40625 C 5.398438 -5.019531 5.609375 -4.445312 5.609375 -3.6875 L 5.609375 0 L 4.84375 0 L 4.84375 -0.921875 C 4.65625 -0.617188 4.382812 -0.378906 4.03125 -0.203125 C 3.6875 -0.0234375 3.273438 0.0625 2.796875 0.0625 C 2.128906 0.0625 1.597656 -0.09375 1.203125 -0.40625 C 0.816406 -0.726562 0.625 -1.148438 0.625 -1.671875 C 0.625 -2.179688 0.804688 -2.585938 1.171875 -2.890625 C 1.535156 -3.203125 2.117188 -3.359375 2.921875 -3.359375 L 4.8125 -3.359375 L 4.8125 -3.71875 C 4.8125 -4.226562 4.664062 -4.617188 4.375 -4.890625 C 4.09375 -5.160156 3.675781 -5.296875 3.125 -5.296875 C 2.75 -5.296875 2.382812 -5.234375 2.03125 -5.109375 C 1.6875 -4.984375 1.390625 -4.8125 1.140625 -4.59375 L 0.78125 -5.1875 C 1.082031 -5.445312 1.441406 -5.644531 1.859375 -5.78125 C 2.285156 -5.925781 2.734375 -6 3.203125 -6 Z M 2.921875 -0.578125 C 3.367188 -0.578125 3.753906 -0.679688 4.078125 -0.890625 C 4.398438 -1.097656 4.644531 -1.394531 4.8125 -1.78125 L 4.8125 -2.765625 L 2.9375 -2.765625 C 1.914062 -2.765625 1.40625 -2.410156 1.40625 -1.703125 C 1.40625 -1.347656 1.535156 -1.070312 1.796875 -0.875 C 2.066406 -0.675781 2.441406 -0.578125 2.921875 -0.578125 Z M 2.921875 -0.578125 "/></g></g></g><g fill="#8a1131" fill-opacity="1"><g transform="translate(184.131996, 257.905735)"><g/></g></g><g fill="#8a1131" fill-opacity="1"><g transform="translate(192.878194, 257.905735)"><g><path d="M 2.828125 -7.1875 L 0.046875 -7.1875 L 0.046875 -7.921875 L 6.453125 -7.921875 L 6.453125 -7.1875 L 3.671875 -7.1875 L 3.671875 0 L 2.828125 0 Z M 2.828125 -7.1875 "/></g></g></g><g fill="#8a1131" fill-opacity="1"><g transform="translate(205.152662, 257.905735)"><g><path d="M 1.890625 -4.78125 C 2.078125 -5.1875 2.359375 -5.488281 2.734375 -5.6875 C 3.109375 -5.894531 3.570312 -6 4.125 -6 L 4.125 -5.21875 L 3.921875 -5.21875 C 3.296875 -5.21875 2.804688 -5.023438 2.453125 -4.640625 C 2.097656 -4.265625 1.921875 -3.726562 1.921875 -3.03125 L 1.921875 0 L 1.125 0 L 1.125 -5.953125 L 1.890625 -5.953125 Z M 1.890625 -4.78125 "/></g></g></g><g fill="#8a1131" fill-opacity="1"><g transform="translate(215.470752, 257.905735)"><g><path d="M 6.484375 -5.953125 L 6.484375 0 L 5.71875 0 L 5.71875 -1.09375 C 5.5 -0.726562 5.203125 -0.441406 4.828125 -0.234375 C 4.460938 -0.0351562 4.046875 0.0625 3.578125 0.0625 C 2.796875 0.0625 2.179688 -0.15625 1.734375 -0.59375 C 1.285156 -1.03125 1.0625 -1.664062 1.0625 -2.5 L 1.0625 -5.953125 L 1.859375 -5.953125 L 1.859375 -2.578125 C 1.859375 -1.953125 2.015625 -1.476562 2.328125 -1.15625 C 2.640625 -0.832031 3.082031 -0.671875 3.65625 -0.671875 C 4.28125 -0.671875 4.769531 -0.859375 5.125 -1.234375 C 5.488281 -1.617188 5.671875 -2.148438 5.671875 -2.828125 L 5.671875 -5.953125 Z M 6.484375 -5.953125 "/></g></g></g><g fill="#8a1131" fill-opacity="1"><g transform="translate(228.864762, 257.905735)"><g><path d="M 2.71875 0.0625 C 2.226562 0.0625 1.765625 -0.00390625 1.328125 -0.140625 C 0.890625 -0.285156 0.546875 -0.460938 0.296875 -0.671875 L 0.65625 -1.3125 C 0.90625 -1.113281 1.21875 -0.953125 1.59375 -0.828125 C 1.96875 -0.703125 2.359375 -0.640625 2.765625 -0.640625 C 3.316406 -0.640625 3.71875 -0.722656 3.96875 -0.890625 C 4.226562 -1.066406 4.359375 -1.3125 4.359375 -1.625 C 4.359375 -1.84375 4.285156 -2.007812 4.140625 -2.125 C 4.003906 -2.25 3.828125 -2.34375 3.609375 -2.40625 C 3.390625 -2.476562 3.097656 -2.546875 2.734375 -2.609375 C 2.253906 -2.691406 1.863281 -2.78125 1.5625 -2.875 C 1.269531 -2.96875 1.019531 -3.128906 0.8125 -3.359375 C 0.613281 -3.585938 0.515625 -3.898438 0.515625 -4.296875 C 0.515625 -4.796875 0.71875 -5.203125 1.125 -5.515625 C 1.539062 -5.835938 2.117188 -6 2.859375 -6 C 3.242188 -6 3.628906 -5.945312 4.015625 -5.84375 C 4.398438 -5.738281 4.71875 -5.601562 4.96875 -5.4375 L 4.609375 -4.796875 C 4.117188 -5.140625 3.535156 -5.3125 2.859375 -5.3125 C 2.347656 -5.3125 1.960938 -5.21875 1.703125 -5.03125 C 1.441406 -4.851562 1.3125 -4.617188 1.3125 -4.328125 C 1.3125 -4.097656 1.382812 -3.914062 1.53125 -3.78125 C 1.675781 -3.644531 1.859375 -3.539062 2.078125 -3.46875 C 2.296875 -3.40625 2.597656 -3.34375 2.984375 -3.28125 C 3.460938 -3.1875 3.84375 -3.09375 4.125 -3 C 4.414062 -2.914062 4.660156 -2.765625 4.859375 -2.546875 C 5.066406 -2.328125 5.171875 -2.023438 5.171875 -1.640625 C 5.171875 -1.117188 4.953125 -0.703125 4.515625 -0.390625 C 4.085938 -0.0859375 3.488281 0.0625 2.71875 0.0625 Z M 2.71875 0.0625 "/></g></g></g><g fill="#8a1131" fill-opacity="1"><g transform="translate(240.178001, 257.905735)"><g><path d="M 4.25 -0.359375 C 4.101562 -0.222656 3.914062 -0.117188 3.6875 -0.046875 C 3.46875 0.0234375 3.238281 0.0625 3 0.0625 C 2.4375 0.0625 2.003906 -0.0859375 1.703125 -0.390625 C 1.398438 -0.691406 1.25 -1.117188 1.25 -1.671875 L 1.25 -5.265625 L 0.1875 -5.265625 L 0.1875 -5.953125 L 1.25 -5.953125 L 1.25 -7.25 L 2.0625 -7.25 L 2.0625 -5.953125 L 3.875 -5.953125 L 3.875 -5.265625 L 2.0625 -5.265625 L 2.0625 -1.71875 C 2.0625 -1.363281 2.148438 -1.09375 2.328125 -0.90625 C 2.503906 -0.726562 2.757812 -0.640625 3.09375 -0.640625 C 3.257812 -0.640625 3.414062 -0.664062 3.5625 -0.71875 C 3.71875 -0.769531 3.851562 -0.84375 3.96875 -0.9375 Z M 4.25 -0.359375 "/></g></g></g></svg>